HIERARCHY
ROOT Hips
{
	OFFSET 0.000000 71.427986 0.000000
	CHANNELS 6 Xposition Yposition Zposition Xrotation Yrotation Zrotation
	JOINT Pelvis
	{
		OFFSET 0.000000 0.000000 0.000000
		CHANNELS 3 Xrotation Yrotation Zrotation
		JOINT LeftUpLeg
		{
			OFFSET 6.797100 -2.508499 -1.318700
			CHANNELS 3 Xrotation Yrotation Zrotation
			JOINT LeftLeg
			{
				OFFSET 0.069008 -29.241863 0.690200
				CHANNELS 3 Xrotation Yrotation Zrotation
				JOINT LeftFoot
				{
					OFFSET -0.069008 -29.568123 -0.266800
					CHANNELS 3 Xrotation Yrotation Zrotation
					JOINT LeftToeBase
					{
						OFFSET 3.145500 -8.631000 16.059900
						CHANNELS 3 Xrotation Yrotation Zrotation
						End Site
						{
							OFFSET 0.000000 18.501587 0.000000
						}
					}
				}
			}
			JOINT Left_ShortSleeve
			{
				OFFSET 0.265923 -10.480953 1.153800
				CHANNELS 3 Xrotation Yrotation Zrotation
				End Site
				{
					OFFSET 1.725763 19.823879 0.000000
				}
			}
		}
		JOINT RightUpLeg
		{
			OFFSET -6.797100 -2.508499 -1.318700
			CHANNELS 3 Xrotation Yrotation Zrotation
			JOINT RightLeg
			{
				OFFSET -0.082453 -29.241932 0.688000
				CHANNELS 3 Xrotation Yrotation Zrotation
				JOINT RightFoot
				{
					OFFSET 0.082453 -29.568058 -0.264600
					CHANNELS 3 Xrotation Yrotation Zrotation
					JOINT RightToeBase
					{
						OFFSET -3.115300 -8.682800 16.113400
						CHANNELS 3 Xrotation Yrotation Zrotation
						End Site
						{
							OFFSET 0.000000 18.567114 0.000000
						}
					}
				}
			}
			JOINT Right_ShortSleeve
			{
				OFFSET -0.265923 -10.480953 1.153800
				CHANNELS 3 Xrotation Yrotation Zrotation
				End Site
				{
					OFFSET -1.725766 19.823910 0.000000
				}
			}
		}
	}
	JOINT Spine
	{
		OFFSET 0.000000 13.368103 0.470500
		CHANNELS 3 Xrotation Yrotation Zrotation
		JOINT Spine1
		{
			OFFSET 0.147000 13.837402 0.538800
			CHANNELS 3 Xrotation Yrotation Zrotation
			JOINT Spine2
			{
				OFFSET 0.168000 16.242897 -1.435500
				CHANNELS 3 Xrotation Yrotation Zrotation
				JOINT Neck
				{
					OFFSET 0.217200 18.631500 -1.679100
					CHANNELS 3 Xrotation Yrotation Zrotation
					JOINT Head
					{
						OFFSET 0.000000 6.599396 1.385900
						CHANNELS 3 Xrotation Yrotation Zrotation
						JOINT Hat
						{
							OFFSET -0.532200 27.220596 -10.096100
							CHANNELS 3 Xrotation Yrotation Zrotation
							End Site
							{
								OFFSET 0.000000 22.029861 0.000000
							}
						}
						JOINT HairD
						{
							OFFSET -10.777400 17.437393 -1.325900
							CHANNELS 3 Xrotation Yrotation Zrotation
							JOINT HairD1
							{
								OFFSET -3.290299 -11.051193 1.062200
								CHANNELS 3 Xrotation Yrotation Zrotation
								End Site
								{
									OFFSET 0.000000 11.579437 0.000000
								}
							}
						}
						JOINT HairB
						{
							OFFSET -10.777400 17.437393 1.467900
							CHANNELS 3 Xrotation Yrotation Zrotation
							JOINT HairB1
							{
								OFFSET -1.561200 -12.956299 3.590200
								CHANNELS 3 Xrotation Yrotation Zrotation
								End Site
								{
									OFFSET 0.000000 13.534866 0.000000
								}
							}
						}
						JOINT HairA
						{
							OFFSET 9.713100 17.437393 1.467900
							CHANNELS 3 Xrotation Yrotation Zrotation
							JOINT HairA1
							{
								OFFSET 1.561200 -12.956299 3.590200
								CHANNELS 3 Xrotation Yrotation Zrotation
								End Site
								{
									OFFSET 0.000000 13.534866 0.000000
								}
							}
						}
						JOINT HairC
						{
							OFFSET 9.713100 17.437393 -1.325900
							CHANNELS 3 Xrotation Yrotation Zrotation
							JOINT HairC1
							{
								OFFSET 3.290300 -11.051193 1.062200
								CHANNELS 3 Xrotation Yrotation Zrotation
								End Site
								{
									OFFSET 0.000000 11.579437 0.000000
								}
							}
						}
					}
				}
				JOINT LeftShoulder
				{
					OFFSET 5.101800 15.108002 -2.763700
					CHANNELS 3 Xrotation Yrotation Zrotation
					JOINT LeftArm
					{
						OFFSET 9.825497 2.506317 -1.597400
						CHANNELS 3 Xrotation Yrotation Zrotation
						JOINT LeftForeArm
						{
							OFFSET 21.966244 0.000000 0.000000
							CHANNELS 3 Xrotation Yrotation Zrotation
							JOINT LeftHand
							{
								OFFSET 33.879036 0.000000 0.000000
								CHANNELS 3 Xrotation Yrotation Zrotation
								JOINT LeftHandThumb1
								{
									OFFSET 6.715286 -2.359680 3.363841
									CHANNELS 3 Xrotation Yrotation Zrotation
									JOINT LeftHandThumb2
									{
										OFFSET 2.507072 -1.447464 1.447461
										CHANNELS 3 Xrotation Yrotation Zrotation
										JOINT LeftHandThumb3
										{
											OFFSET 2.898338 -1.673355 1.673357
											CHANNELS 3 Xrotation Yrotation Zrotation
											End Site
											{
												OFFSET -0.295959 3.727692 -0.131651
											}
										}
									}
								}
								JOINT LeftHandIndex1
								{
									OFFSET 14.190811 -0.254547 3.840278
									CHANNELS 3 Xrotation Yrotation Zrotation
									JOINT LeftHandIndex2
									{
										OFFSET 3.551727 0.000000 -0.000000
										CHANNELS 3 Xrotation Yrotation Zrotation
										JOINT LeftHandIndex3
										{
											OFFSET 2.894196 0.000000 0.000000
											CHANNELS 3 Xrotation Yrotation Zrotation
											End Site
											{
												OFFSET -1.000603 2.690872 0.366626
											}
										}
									}
								}
								JOINT LeftHandMiddle1
								{
									OFFSET 13.776489 0.000000 0.000000
									CHANNELS 3 Xrotation Yrotation Zrotation
									JOINT LeftHandMiddle2
									{
										OFFSET 3.438232 0.000000 0.000000
										CHANNELS 3 Xrotation Yrotation Zrotation
										JOINT LeftHandMiddle3
										{
											OFFSET 3.691551 0.000000 0.000000
											CHANNELS 3 Xrotation Yrotation Zrotation
											End Site
											{
												OFFSET -1.082298 3.499527 0.457670
											}
										}
									}
								}
								JOINT LeftHandRing1
								{
									OFFSET 13.966164 -0.268127 -3.067488
									CHANNELS 3 Xrotation Yrotation Zrotation
									JOINT LeftHandRing2
									{
										OFFSET 3.162567 0.000000 0.000000
										CHANNELS 3 Xrotation Yrotation Zrotation
										JOINT LeftHandRing3
										{
											OFFSET 3.324348 0.000000 0.000000
											CHANNELS 3 Xrotation Yrotation Zrotation
											End Site
											{
												OFFSET -0.861900 3.184998 0.405154
											}
										}
									}
								}
								JOINT LeftHandPinky1
								{
									OFFSET 13.131393 -0.168503 -5.746925
									CHANNELS 3 Xrotation Yrotation Zrotation
									JOINT LeftHandPinky2
									{
										OFFSET 2.849182 0.000000 0.000000
										CHANNELS 3 Xrotation Yrotation Zrotation
										JOINT LeftHandPinky3
										{
											OFFSET 2.805038 0.000000 0.000000
											CHANNELS 3 Xrotation Yrotation Zrotation
											End Site
											{
												OFFSET -0.882500 2.642609 0.325652
											}
										}
									}
								}
							}
							JOINT Left_Sleeve
							{
								OFFSET 6.592125 -0.646545 0.805568
								CHANNELS 3 Xrotation Yrotation Zrotation
								End Site
								{
									OFFSET -0.000179 20.275787 -0.000000
								}
							}
						}
					}
				}
				JOINT RightShoulder
				{
					OFFSET -5.731700 15.108002 -2.763700
					CHANNELS 3 Xrotation Yrotation Zrotation
					JOINT RightArm
					{
						OFFSET -9.825497 2.506317 -1.597400
						CHANNELS 3 Xrotation Yrotation Zrotation
						JOINT RightForeArm
						{
							OFFSET -21.966242 0.000000 0.000000
							CHANNELS 3 Xrotation Yrotation Zrotation
							JOINT RightHand
							{
								OFFSET -33.879032 0.000000 0.000000
								CHANNELS 3 Xrotation Yrotation Zrotation
								JOINT RightHandThumb1
								{
									OFFSET -6.715286 -2.359680 3.363841
									CHANNELS 3 Xrotation Yrotation Zrotation
									JOINT RightHandThumb2
									{
										OFFSET -2.507072 -1.447464 1.447461
										CHANNELS 3 Xrotation Yrotation Zrotation
										JOINT RightHandThumb3
										{
											OFFSET -2.898338 -1.673355 1.673357
											CHANNELS 3 Xrotation Yrotation Zrotation
											End Site
											{
												OFFSET 0.295959 3.727692 -0.131651
											}
										}
									}
								}
								JOINT RightHandIndex1
								{
									OFFSET -14.190811 -0.254547 3.840278
									CHANNELS 3 Xrotation Yrotation Zrotation
									JOINT RightHandIndex2
									{
										OFFSET -3.551727 0.000000 -0.000000
										CHANNELS 3 Xrotation Yrotation Zrotation
										JOINT RightHandIndex3
										{
											OFFSET -2.894196 0.000000 0.000000
											CHANNELS 3 Xrotation Yrotation Zrotation
											End Site
											{
												OFFSET 1.000603 2.690872 0.366626
											}
										}
									}
								}
								JOINT RightHandMiddle1
								{
									OFFSET -13.776489 0.000000 0.000000
									CHANNELS 3 Xrotation Yrotation Zrotation
									JOINT RightHandMiddle2
									{
										OFFSET -3.438232 0.000000 0.000000
										CHANNELS 3 Xrotation Yrotation Zrotation
										JOINT RightHandMiddle3
										{
											OFFSET -3.691551 0.000000 0.000000
											CHANNELS 3 Xrotation Yrotation Zrotation
											End Site
											{
												OFFSET 1.082298 3.499527 0.457670
											}
										}
									}
								}
								JOINT RightHandRing1
								{
									OFFSET -13.966164 -0.268127 -3.067488
									CHANNELS 3 Xrotation Yrotation Zrotation
									JOINT RightHandRing2
									{
										OFFSET -3.162567 0.000000 0.000000
										CHANNELS 3 Xrotation Yrotation Zrotation
										JOINT RightHandRing3
										{
											OFFSET -3.324348 0.000000 0.000000
											CHANNELS 3 Xrotation Yrotation Zrotation
											End Site
											{
												OFFSET 0.861900 3.184998 0.405154
											}
										}
									}
								}
								JOINT RightHandPinky1
								{
									OFFSET -13.131393 -0.168503 -5.746925
									CHANNELS 3 Xrotation Yrotation Zrotation
									JOINT RightHandPinky2
									{
										OFFSET -2.849182 0.000000 0.000000
										CHANNELS 3 Xrotation Yrotation Zrotation
										JOINT RightHandPinky3
										{
											OFFSET -2.805038 0.000000 0.000000
											CHANNELS 3 Xrotation Yrotation Zrotation
											End Site
											{
												OFFSET 0.882500 2.642609 0.325652
											}
										}
									}
								}
							}
							JOINT Right_Sleeve
							{
								OFFSET -6.592125 -0.646545 0.805568
								CHANNELS 3 Xrotation Yrotation Zrotation
								End Site
								{
									OFFSET 0.000179 20.275787 -0.000000
								}
							}
						}
					}
				}
				JOINT Bind_Right_JacketString
				{
					OFFSET -3.534800 11.969597 7.200700
					CHANNELS 3 Xrotation Yrotation Zrotation
					JOINT Bind_Right_JacketString1
					{
						OFFSET -0.319900 -6.102600 2.794100
						CHANNELS 3 Xrotation Yrotation Zrotation
						End Site
						{
							OFFSET 0.000000 6.719452 0.000000
						}
					}
				}
				JOINT Bind_Left_JacketString
				{
					OFFSET 2.904800 11.969597 7.200700
					CHANNELS 3 Xrotation Yrotation Zrotation
					JOINT Bind_Left_JacketString1
					{
						OFFSET 0.364800 -5.904503 3.186800
						CHANNELS 3 Xrotation Yrotation Zrotation
						End Site
						{
							OFFSET 0.000000 6.719513 0.000000
						}
					}
				}
				JOINT HairE
				{
					OFFSET 5.915200 17.612701 -11.592200
					CHANNELS 3 Xrotation Yrotation Zrotation
					JOINT HairE1
					{
						OFFSET 0.289200 -7.171898 -1.284500
						CHANNELS 3 Xrotation Yrotation Zrotation
						End Site
						{
							OFFSET 0.000000 7.291756 0.000000
						}
					}
				}
				JOINT HairF
				{
					OFFSET -0.864800 17.612701 -11.592200
					CHANNELS 3 Xrotation Yrotation Zrotation
					JOINT HairF1
					{
						OFFSET 0.000000 -14.087097 -2.127501
						CHANNELS 3 Xrotation Yrotation Zrotation
						End Site
						{
							OFFSET 0.000000 14.246841 0.000000
						}
					}
				}
				JOINT HairG
				{
					OFFSET -8.087700 17.612701 -11.592200
					CHANNELS 3 Xrotation Yrotation Zrotation
					JOINT HairG1
					{
						OFFSET -0.293600 -6.081398 -0.910100
						CHANNELS 3 Xrotation Yrotation Zrotation
						End Site
						{
							OFFSET 0.000000 6.156120 0.000000
						}
					}
				}
			}
		}
	}
	JOINT Pouch
	{
		OFFSET 0.000000 4.394501 10.847300
		CHANNELS 3 Xrotation Yrotation Zrotation
		End Site
		{
			OFFSET 0.000000 21.880577 0.000000
		}
	}
	JOINT Bag
	{
		OFFSET -13.229000 4.813004 -0.593300
		CHANNELS 3 Xrotation Yrotation Zrotation
		End Site
		{
			OFFSET 0.000000 21.880577 0.000000
		}
	}
	JOINT OccupyGuyFacialAnim_Joint
	{
		OFFSET 1.000000 -70.206398 -1.655000
		CHANNELS 3 Xrotation Yrotation Zrotation
		End Site
		{
			OFFSET 0.000000 21.880577 0.000000
		}
	}
}
MOTION
Frames: 4
Frame Time: 0.016667
-0.019277 62.735092 0.823942 -14.105750 4.571294 -0.315868 0.000001 0.000000 0.000000 -16.838078 -1.370027 13.871047 58.871586 -0.483501 0.413706 -27.690208 -1.413442 -11.307044 -0.000000 -0.000000 0.000000 -0.000002 -0.000000 0.000000 -13.663309 -10.554424 -14.973795 58.593597 0.223840 -0.378965 -30.029541 -3.892729 10.014559 0.000000 -0.000000 -0.000000 0.000001 -0.000000 -0.000001 20.019351 -0.054179 0.812357 6.967088 -0.338071 0.675295 6.967312 -0.337865 0.674353 -12.249458 -1.248218 -0.495995 -16.116726 -1.754206 -0.002254 -0.000000 -0.000000 -0.000000 -0.000000 -0.000000 -0.000000 -0.000000 -0.000000 -0.000000 -0.000000 -0.000000 -0.000000 0.000001 -0.000000 -0.000000 -0.000000 -0.000000 -0.000000 0.000001 -0.000000 -0.000000 -0.000000 -0.000000 -0.000000 -0.000000 -0.000000 -0.000000 3.082222 -9.945121 -6.811323 -13.959275 -7.908212 -60.295271 69.634318 -63.509107 71.597130 17.167899 -2.491260 -13.648303 2.689273 3.159888 6.593328 -0.080951 21.143663 -2.540008 -0.000000 0.000001 -0.000001 -10.621161 2.937294 -19.267723 1.669111 6.188711 -21.755677 0.000001 -0.000002 -0.000000 -13.823030 9.936959 -22.469202 6.048997 4.246422 -31.221976 0.000000 0.000001 -0.000001 -10.744684 8.325253 -36.571073 3.038183 0.221625 -39.078688 -0.000001 0.000001 -0.000001 -11.942415 9.095576 -39.265446 4.640658 -6.164082 -45.289294 -0.000002 0.000001 0.000001 0.000001 -0.000000 -0.000001 8.709549 -2.418523 18.823142 -21.494474 12.934329 56.855482 76.344173 65.517005 -70.724587 6.443804 -2.140705 3.544990 2.694432 -3.160177 -6.583868 -0.079184 -21.145981 2.540882 -0.000004 -0.000001 0.000001 -10.621208 -2.937108 19.269087 1.668962 -6.188752 21.755281 0.000002 -0.000001 -0.000002 -13.688474 -10.244154 24.164205 6.044761 -4.250353 31.223346 0.000001 -0.000003 -0.000001 -10.744616 -8.325814 36.570011 3.042392 -0.220461 39.078753 0.000001 -0.000000 -0.000004 -11.872853 -9.179271 39.251991 4.640931 6.162601 45.288829 0.000002 0.000002 0.000001 -0.000000 0.000001 -0.000000 -0.000001 0.000000 0.000000 0.000001 0.000000 0.000000 -0.000001 0.000000 0.000000 -0.000001 0.000000 0.000000 -0.000001 0.000000 0.000000 0.000001 0.000000 0.000000 -0.000001 0.000000 0.000000 -0.000001 0.000000 0.000000 -0.000001 0.000000 0.000000 0.000001 0.000000 0.000000 0.000001 0.000000 0.000000 0.000001 0.000000 0.000000 0.000001 0.000000 0.000000 
-0.014700 62.732178 0.821606 -14.082935 4.584175 -0.326909 -0.000001 0.000000 0.000000 -16.881169 -1.359765 13.887553 58.890014 -0.532850 0.413217 -27.693716 -1.401420 -11.278517 0.000000 -0.000000 0.000000 0.000003 0.000000 0.000001 -13.687761 -10.562384 -14.969630 58.596131 0.225312 -0.378950 -30.027339 -3.898544 10.017786 0.000000 -0.000002 -0.000000 -0.000001 -0.000000 -0.000001 20.019329 -0.054020 0.813352 6.967170 -0.337048 0.675000 6.967379 -0.336799 0.673819 -12.274426 -1.249901 -0.501451 -16.104611 -1.759240 0.008366 -0.000001 -0.000000 -0.000000 -0.000001 -0.000000 -0.000000 -0.000001 -0.000000 0.000000 -0.000001 -0.000000 -0.000000 0.000000 -0.000000 0.000000 -0.000001 -0.000000 -0.000000 0.000000 -0.000000 0.000000 -0.000001 -0.000000 -0.000000 -0.000001 -0.000000 -0.000000 3.081948 -9.940217 -6.846194 -13.919033 -8.007092 -60.186561 69.508369 -63.495214 71.476140 17.165988 -2.496258 -13.676334 2.740397 3.355888 6.651967 -0.304241 20.508142 -2.520051 -0.000002 0.000001 -0.000001 -10.843761 2.408698 -18.034249 1.583733 5.984685 -20.446053 0.000001 0.000000 -0.000002 -13.988352 9.479606 -21.637647 5.872545 4.134115 -30.142946 0.000000 -0.000001 -0.000001 -10.745597 7.991143 -35.808237 2.902345 0.024352 -37.900890 -0.000001 0.000002 0.000000 -11.884772 8.825195 -38.571765 4.536604 -6.270395 -44.699060 0.000001 0.000000 0.000001 0.000002 -0.000000 0.000000 8.719995 -2.431949 18.863523 -21.419388 13.027303 56.754149 76.284102 65.521533 -70.684371 6.443184 -2.129472 3.550596 2.691621 -3.150291 -6.581381 -0.140273 -20.912579 2.443747 -0.000002 -0.000002 0.000001 -10.723857 -2.678722 18.376240 1.607998 -6.040017 20.834094 0.000002 0.000004 -0.000003 -13.789858 -9.992676 23.322241 5.930034 -4.112790 30.347685 0.000000 -0.000003 -0.000003 -10.804183 -8.106025 35.619505 2.942602 -0.098420 38.315828 0.000000 -0.000005 -0.000002 -11.920080 -8.998293 38.400420 4.514682 6.278558 44.542669 -0.000000 0.000003 0.000001 0.000003 -0.000002 0.000002 0.000002 0.000000 0.000000 0.000002 -0.000000 -0.000000 0.000002 0.000000 -0.000000 0.000002 0.000000 -0.000000 0.000002 0.000000 0.000000 0.000002 -0.000000 -0.000000 0.000002 0.000000 -0.000000 0.000002 0.000000 -0.000000 0.000002 0.000000 0.000000 0.000002 -0.000000 -0.000000 -0.000001 0.000000 0.000000 -0.000001 0.000000 0.000000 -0.000001 0.000000 0.000000 
-0.003437 62.727692 0.818031 -14.047875 4.617126 -0.344688 -0.000001 0.000000 0.000000 -16.953506 -1.345169 13.911999 58.922717 -0.621557 0.412231 -27.700000 -1.383797 -11.223797 0.000000 -0.000000 -0.000000 -0.000001 -0.000001 0.000001 -13.720907 -10.582206 -14.966532 58.595168 0.225997 -0.378879 -30.021905 -3.910889 10.028157 0.000000 0.000000 -0.000000 -0.000002 0.000000 0.000000 20.019382 -0.053794 0.815073 6.967764 -0.333987 0.674075 6.967985 -0.333704 0.672075 -12.339814 -1.259016 -0.511592 -16.061070 -1.772782 0.024099 0.000000 -0.000000 -0.000000 0.000000 -0.000000 -0.000000 0.000000 -0.000000 -0.000000 0.000000 -0.000000 -0.000000 0.000001 -0.000000 0.000000 0.000000 -0.000000 -0.000000 0.000001 -0.000000 0.000000 0.000000 -0.000000 -0.000000 0.000000 -0.000000 -0.000000 3.081505 -9.932724 -6.899785 -13.772137 -8.303081 -59.856588 69.210539 -63.491212 71.193664 17.161969 -2.546406 -13.762101 2.843734 3.755978 6.771117 -0.770436 19.209938 -2.488543 -0.000001 0.000002 -0.000002 -11.271556 1.302785 -15.505463 1.424454 5.551980 -17.730259 -0.000000 0.000000 -0.000004 -14.321391 8.535468 -19.931554 5.513426 3.887923 -27.908904 -0.000001 0.000003 -0.000001 -10.734832 7.300020 -34.231788 2.630250 -0.392174 -35.470709 -0.000000 -0.000003 -0.000001 -11.758229 8.260797 -37.125285 4.322555 -6.494800 -43.471907 -0.000000 -0.000001 0.000003 0.000001 -0.000000 0.000002 8.739793 -2.465331 18.929309 -21.199623 13.256776 56.475597 76.163911 65.580335 -70.597354 6.440266 -2.094184 3.595602 2.684930 -3.126726 -6.575400 -0.271191 -20.426828 2.250003 -0.000002 -0.000001 0.000001 -10.925262 -2.140278 16.541907 1.491010 -5.724735 18.914802 -0.000003 0.000001 0.000002 -13.991220 -9.467903 21.607008 5.700141 -3.821572 28.537060 0.000004 -0.000001 0.000001 -10.911725 -7.639082 33.676716 2.742886 0.160225 36.738498 0.000000 -0.000002 -0.000001 -12.003661 -8.605890 36.648975 4.261019 6.522138 43.011026 -0.000002 0.000001 -0.000001 -0.000001 0.000001 0.000001 0.000001 0.000000 0.000000 0.000003 0.000000 0.000000 0.000001 0.000000 -0.000000 0.000001 0.000000 -0.000000 0.000001 0.000000 0.000000 0.000003 0.000000 0.000000 0.000001 0.000000 -0.000000 0.000001 0.000000 -0.000000 0.000001 0.000000 0.000000 0.000003 0.000000 0.000000 -0.000001 0.000000 0.000000 -0.000001 0.000000 0.000000 -0.000001 0.000000 0.000000 
0.011898 62.726898 0.820910 -14.041563 4.662181 -0.348345 0.000001 0.000000 0.000000 -16.979468 -1.351631 13.907530 58.942415 -0.665436 0.411600 -27.708206 -1.383630 -11.186589 -0.000000 0.000001 -0.000000 0.000003 -0.000001 -0.000001 -13.710789 -10.610492 -14.979920 58.580552 0.222531 -0.378778 -30.018572 -3.921306 10.047276 -0.000000 -0.000000 0.000000 -0.000000 -0.000000 -0.000002 20.019742 -0.054026 0.814972 6.970449 -0.329655 0.671556 6.970667 -0.329433 0.668393 -12.447035 -1.280075 -0.519118 -15.961775 -1.792115 0.025987 -0.000001 0.000000 0.000000 -0.000001 0.000000 0.000000 -0.000001 0.000000 0.000000 -0.000001 0.000000 0.000000 0.000000 0.000000 0.000000 -0.000001 0.000000 0.000000 0.000000 0.000000 0.000000 -0.000001 0.000000 0.000000 -0.000001 0.000000 0.000000 3.083195 -9.935518 -6.902659 -13.503004 -8.789856 -59.312386 68.869788 -63.545956 70.887214 17.160125 -2.676760 -13.924299 2.936496 4.117326 6.878273 -1.207026 18.029203 -2.472062 0.000003 0.000001 0.000002 -11.627921 0.244290 -13.176316 1.292633 5.132249 -15.152109 -0.000000 -0.000001 -0.000002 -14.610804 7.654094 -18.356420 5.188256 3.625248 -25.799330 -0.000001 0.000000 -0.000001 -10.691639 6.650383 -32.754613 2.397537 -0.806226 -33.196236 -0.000001 0.000005 -0.000000 -11.617389 7.716399 -35.737732 4.123991 -6.717359 -42.299262 -0.000000 0.000004 0.000002 0.000001 0.000000 -0.000001 8.752995 -2.509403 18.951113 -20.864462 13.561960 56.069293 76.084353 65.725736 -70.530384 6.436101 -2.033727 3.726643 2.676291 -3.096407 -6.567727 -0.405699 -19.963005 2.085441 -0.000000 -0.000001 0.000001 -11.113373 -1.627062 14.850573 1.387879 -5.417883 17.068590 -0.000003 0.000002 -0.000005 -14.172685 -8.971360 20.058908 5.490037 -3.541210 26.833409 0.000006 -0.000005 0.000000 -10.985406 -7.177302 31.907744 2.563261 0.413044 35.256118 -0.000001 -0.000003 0.000001 -12.051311 -8.201157 35.024411 4.032091 6.754994 41.602932 -0.000001 0.000000 0.000001 0.000005 0.000000 0.000001 -0.000000 -0.000000 -0.000000 -0.000000 -0.000000 0.000000 -0.000000 -0.000000 -0.000000 -0.000000 -0.000000 -0.000000 -0.000000 -0.000000 -0.000000 -0.000000 -0.000000 0.000000 -0.000000 -0.000000 -0.000000 -0.000000 -0.000000 -0.000000 -0.000000 -0.000000 -0.000000 -0.000000 -0.000000 0.000000 0.000001 0.000000 0.000000 0.000001 0.000000 0.000000 0.000001 0.000000 0.000000 
